<svg width="36" height="36" viewBox="0 0 36 36" fill="none" xmlns="http://www.w3.org/2000/svg">
<g id="hugeicons:call">
<path id="Vector" d="M5.66665 17.913C4.24465 15.435 3.55765 13.41 3.14365 11.358C2.53165 8.322 3.93265 5.3565 6.25315 3.4635C7.23415 2.664 8.35915 2.9385 8.93965 3.978L10.2491 6.3285C11.2871 8.1915 11.8061 9.1215 11.7041 10.1085C11.6006 11.097 10.9001 11.901 9.50065 13.509L5.66665 17.913ZM5.66665 17.913C8.54515 22.932 13.0616 27.453 18.0866 30.333M18.0866 30.333C20.5661 31.755 22.5896 32.442 24.6416 32.856C27.6776 33.468 30.6432 32.067 32.5347 29.7465C33.3357 28.7655 33.0611 27.6405 32.0216 27.06L29.6712 25.7505C27.8082 24.7125 26.8781 24.1935 25.8911 24.2955C24.9026 24.399 24.0987 25.0995 22.4907 26.499L18.0866 30.333Z" stroke="#202020" stroke-width="1.5" stroke-linecap="round" stroke-linejoin="round"/>
</g>
</svg>
